<svg width="960" height="260" viewBox="0 0 960 260" fill="none" xmlns="http://www.w3.org/2000/svg" role="img" aria-label="KadryHR.pl – Kadry i płace bez tajemnic">
  <defs>
    <linearGradient id="swirl-full-dark" x1="60" y1="40" x2="220" y2="220" gradientUnits="userSpaceOnUse">
      <stop offset="0" stop-color="#4BA3FF"/>
      <stop offset="1" stop-color="#7BC4FF"/>
    </linearGradient>
    <radialGradient id="glow-full-dark" cx="0" cy="0" r="1" gradientUnits="userSpaceOnUse" gradientTransform="translate(140 130) rotate(90) scale(140)">
      <stop offset="0" stop-color="#B6DBFF" stop-opacity="0.35"/>
      <stop offset="1" stop-color="#B6DBFF" stop-opacity="0"/>
    </radialGradient>
  </defs>
  <g>
    <circle cx="140" cy="130" r="128" fill="url(#glow-full-dark)" />
    <path fill="url(#swirl-full-dark)" d="M58 150c0-63 55-108 115-108 46 0 79 32 79 76 0 50-37 90-97 90-36 0-55-17-66-36 6 4 13 7 23 7 28 0 50-19 50-48 0-25-17-44-42-44-32 0-59 26-59 78 0 30 8 58 23 78-32-18-50-54-50-93Z"/>
    <circle cx="120" cy="112" r="12" fill="#1D6FEF"/>
    <circle cx="174" cy="98" r="12" fill="#1D6FEF"/>
    <circle cx="206" cy="128" r="12" fill="#1D6FEF"/>
  </g>
  <g transform="translate(300 84)">
    <text x="0" y="48" fill="#F8FAFC" font-family="'Inter', 'Segoe UI', sans-serif" font-weight="700" font-size="54" letter-spacing="0.5">
      KadryHR.pl
    </text>
    <text x="0" y="102" fill="#C7D2FE" font-family="'Inter', 'Segoe UI', sans-serif" font-weight="500" font-size="28">
      Kadry i płace bez tajemnic
    </text>
  </g>
</svg>
