<svg width="760" height="200" viewBox="0 0 760 200" fill="none" xmlns="http://www.w3.org/2000/svg" role="img" aria-label="KadryHR.pl">
  <defs>
    <linearGradient id="swirl-compact-dark" x1="40" y1="30" x2="170" y2="170" gradientUnits="userSpaceOnUse">
      <stop offset="0" stop-color="#4BA3FF"/>
      <stop offset="1" stop-color="#7BC4FF"/>
    </linearGradient>
    <radialGradient id="glow-compact-dark" cx="0" cy="0" r="1" gradientUnits="userSpaceOnUse" gradientTransform="translate(110 100) rotate(90) scale(110)">
      <stop offset="0" stop-color="#B6DBFF" stop-opacity="0.35"/>
      <stop offset="1" stop-color="#B6DBFF" stop-opacity="0"/>
    </radialGradient>
  </defs>
  <g>
    <circle cx="110" cy="100" r="105" fill="url(#glow-compact-dark)" />
    <path fill="url(#swirl-compact-dark)" d="M48 118c0-55 46-94 97-94 39 0 66 27 66 65 0 43-32 77-82 77-31 0-47-14-56-31 5 4 11 6 19 6 25 0 44-17 44-42 0-23-16-39-39-39-30 0-52 25-52 72 0 26 7 50 21 68-28-16-44-47-44-82Z"/>
    <circle cx="96" cy="90" r="11" fill="#1D6FEF"/>
    <circle cx="142" cy="80" r="11" fill="#1D6FEF"/>
    <circle cx="168" cy="106" r="11" fill="#1D6FEF"/>
  </g>
  <text x="240" y="118" fill="#F8FAFC" font-family="'Inter', 'Segoe UI', sans-serif" font-weight="700" font-size="58" letter-spacing="0.5">
    KadryHR.pl
  </text>
</svg>
