<svg width="72" height="72" viewBox="0 0 72 72" fill="none" xmlns="http://www.w3.org/2000/svg" role="img" aria-label="KadryHR">
  <defs>
    <linearGradient id="iconGradient" x1="0" y1="0" x2="1" y2="1">
      <stop offset="0%" stop-color="#0f5341" />
      <stop offset="52%" stop-color="#168460" />
      <stop offset="100%" stop-color="#45c992" />
    </linearGradient>
  </defs>
  <g>
    <rect x="2" y="2" width="68" height="68" rx="20" fill="url(#iconGradient)" />
    <rect x="8" y="8" width="56" height="56" rx="18" fill="rgba(4, 12, 9, 0.25)" />
    <g fill="#dff5ea">
      <circle cx="36" cy="26" r="8" />
      <circle cx="22" cy="30" r="6" fill="#bcebd3" />
      <circle cx="50" cy="30" r="6" fill="#bcebd3" />
      <path d="M20 54c2.5-8 9-12 16-12s13.5 4 16 12v6H20v-6z" />
      <path d="M10 54c2-6 6-9 12-9 2.5 0 4.5.4 6.5 1.3-3.8 2-6.6 5-8.5 9H10z" fill="#bcebd3" />
      <path d="M50 46.3c2-1 4.1-1.3 6.5-1.3 6 0 10 3 12 9H52c-1.8-4-4.6-7-8.5-9z" fill="#bcebd3" />
    </g>
    <rect x="2" y="2" width="68" height="68" rx="20" fill="none" stroke="rgba(255,255,255,0.25)" />
  </g>
</svg>
