<svg width="320" height="120" viewBox="0 0 320 120" fill="none" xmlns="http://www.w3.org/2000/svg">
  <defs>
    <linearGradient id="ringCompact" x1="10" y1="12" x2="120" y2="120" gradientUnits="userSpaceOnUse">
      <stop stop-color="#12BBD1" />
      <stop offset="0.6" stop-color="#1F9BD7" />
      <stop offset="1" stop-color="#0F6FB7" />
    </linearGradient>
  </defs>
  <g transform="translate(6 4)">
    <circle cx="60" cy="56" r="52" stroke="url(#ringCompact)" stroke-width="10" fill="none" />
    <circle cx="58" cy="56" r="36" fill="#12BBD1" opacity="0.9" />
    <circle cx="79" cy="50" r="16" fill="#0F6FB7" opacity="0.9" />
    <path d="M44 76C47.5 70 52 67 58 67C64 67 67 70 70.5 75.5" stroke="white" stroke-width="6" stroke-linecap="round" />
    <path d="M76 68C78.4 64 81.6 61.8 85.8 61.8C90.6 61.8 93.4 64.2 95.8 68.4" stroke="white" stroke-width="5" stroke-linecap="round"/>
    <circle cx="99" cy="24" r="5" fill="#7CE7F7" />
    <circle cx="108" cy="33" r="4.5" fill="#7CE7F7" />
    <circle cx="95" cy="35" r="3.5" fill="#7CE7F7" />
  </g>
  <g transform="translate(150 32)">
    <text x="0" y="42" fill="#0F6FB7" font-family="'Inter', system-ui, -apple-system, sans-serif" font-size="42" font-weight="800" letter-spacing="0.4">Kadry</text>
    <rect x="138" y="10" width="76" height="38" rx="9" fill="#12BBD1" />
    <text x="151" y="39" fill="white" font-family="'Inter', system-ui, -apple-system, sans-serif" font-size="28" font-weight="800">HR</text>
  </g>
</svg>
