<svg width="240" height="240" viewBox="0 0 240 240" fill="none" xmlns="http://www.w3.org/2000/svg">
  <defs>
    <linearGradient id="swirl" x1="40" y1="40" x2="200" y2="200" gradientUnits="userSpaceOnUse">
      <stop offset="0" stop-color="#1D74F5"/>
      <stop offset="1" stop-color="#4BA3FF"/>
    </linearGradient>
    <radialGradient id="glow" cx="0" cy="0" r="1" gradientUnits="userSpaceOnUse" gradientTransform="translate(120 120) rotate(90) scale(120)">
      <stop offset="0" stop-color="#E6F1FF" stop-opacity="0.35"/>
      <stop offset="1" stop-color="#E6F1FF" stop-opacity="0"/>
    </radialGradient>
  </defs>
  <circle cx="120" cy="120" r="118" fill="url(#glow)" />
  <path fill="url(#swirl)" d="M45 140C45 85 96 48 145 48c37 0 59 26 59 58 0 36-27 66-72 66-25 0-38-13-46-27 4 3 9 5 16 5 21 0 37-14 37-36 0-19-13-33-31-33-24 0-43 20-43 59 0 24 6 46 18 62-24-15-38-43-38-82Z"/>
  <circle cx="98" cy="100" r="10" fill="#0A4ECF"/>
  <circle cx="142" cy="90" r="10" fill="#0A4ECF"/>
  <circle cx="166" cy="116" r="10" fill="#0A4ECF"/>
</svg>
