<svg width="480" height="420" viewBox="0 0 480 420" fill="none" xmlns="http://www.w3.org/2000/svg" role="img" aria-label="HR consulting illustration">
  <defs>
    <linearGradient id="bg" x1="40" y1="40" x2="440" y2="380" gradientUnits="userSpaceOnUse">
      <stop stop-color="#E0F2FE"/>
      <stop offset="1" stop-color="#FEE2E2"/>
    </linearGradient>
  </defs>
  <rect x="24" y="24" width="432" height="372" rx="36" fill="url(#bg)"/>
  <rect x="80" y="90" width="160" height="210" rx="24" fill="#FFFFFF" stroke="#BFDBFE" stroke-width="2"/>
  <rect x="100" y="120" width="120" height="10" rx="5" fill="#E2E8F0"/>
  <rect x="100" y="146" width="100" height="10" rx="5" fill="#E2E8F0"/>
  <rect x="100" y="172" width="80" height="10" rx="5" fill="#E2E8F0"/>
  <circle cx="170" cy="220" r="26" fill="#FDBA74"/>
  <rect x="150" y="246" width="40" height="52" rx="16" fill="#FB923C"/>
  <rect x="270" y="110" width="140" height="180" rx="24" fill="#FFFFFF" stroke="#CBD5F5" stroke-width="2"/>
  <rect x="290" y="140" width="100" height="10" rx="5" fill="#E2E8F0"/>
  <rect x="290" y="166" width="90" height="10" rx="5" fill="#E2E8F0"/>
  <rect x="290" y="192" width="70" height="10" rx="5" fill="#E2E8F0"/>
  <rect x="290" y="218" width="80" height="10" rx="5" fill="#E2E8F0"/>
  <rect x="270" y="260" width="140" height="44" rx="18" fill="#1D4ED8"/>
  <path d="M300 282H380" stroke="white" stroke-width="3" stroke-linecap="round"/>
  <circle cx="360" cy="90" r="20" fill="#DBEAFE"/>
  <path d="M360 80V90L370 96" stroke="#2563EB" stroke-width="3" stroke-linecap="round"/>
  <circle cx="120" cy="70" r="16" fill="#FED7AA"/>
  <path d="M114 70L120 76L132 62" stroke="#F97316" stroke-width="3" stroke-linecap="round" stroke-linejoin="round"/>
</svg>
