<svg width="520" height="460" viewBox="0 0 520 460" fill="none" xmlns="http://www.w3.org/2000/svg" role="img" aria-label="HR team illustration">
  <defs>
    <linearGradient id="paint0" x1="80" y1="60" x2="430" y2="420" gradientUnits="userSpaceOnUse">
      <stop stop-color="#E0F2FE"/>
      <stop offset="1" stop-color="#FFE8D6"/>
    </linearGradient>
    <linearGradient id="paint1" x1="0" y1="0" x2="1" y2="1">
      <stop stop-color="#1E3A8A"/>
      <stop offset="1" stop-color="#3B82F6"/>
    </linearGradient>
  </defs>
  <rect x="30" y="30" width="460" height="400" rx="36" fill="url(#paint0)"/>
  <rect x="80" y="110" width="200" height="260" rx="24" fill="white" stroke="#BFDBFE" stroke-width="2"/>
  <rect x="110" y="150" width="140" height="14" rx="7" fill="#E2E8F0"/>
  <rect x="110" y="180" width="110" height="12" rx="6" fill="#E2E8F0"/>
  <rect x="110" y="210" width="120" height="12" rx="6" fill="#E2E8F0"/>
  <circle cx="220" cy="250" r="22" fill="#FDBA74"/>
  <rect x="198" y="272" width="44" height="56" rx="16" fill="#FB923C"/>
  <rect x="300" y="140" width="140" height="200" rx="24" fill="#EFF6FF"/>
  <rect x="320" y="170" width="100" height="10" rx="5" fill="#D1D5DB"/>
  <rect x="320" y="192" width="90" height="10" rx="5" fill="#D1D5DB"/>
  <rect x="320" y="214" width="80" height="10" rx="5" fill="#D1D5DB"/>
  <circle cx="370" cy="270" r="36" fill="url(#paint1)"/>
  <path d="M360 270L368 278L384 260" stroke="white" stroke-width="4" stroke-linecap="round" stroke-linejoin="round"/>
  <rect x="120" y="330" width="160" height="20" rx="10" fill="#BFDBFE"/>
  <rect x="340" y="320" width="90" height="50" rx="14" fill="#F97316"/>
  <path d="M360 346H390" stroke="white" stroke-width="4" stroke-linecap="round"/>
  <circle cx="420" cy="110" r="22" fill="#DBEAFE"/>
  <path d="M420 98V110L430 116" stroke="#1D4ED8" stroke-width="3" stroke-linecap="round"/>
  <circle cx="100" cy="90" r="18" fill="#FED7AA"/>
  <path d="M94 90L100 96L112 82" stroke="#EA580C" stroke-width="3" stroke-linecap="round" stroke-linejoin="round"/>
</svg>
