<svg width="1200" height="630" viewBox="0 0 1200 630" fill="none" xmlns="http://www.w3.org/2000/svg">
  <defs>
    <linearGradient id="bg" x1="0" y1="0" x2="1200" y2="630" gradientUnits="userSpaceOnUse">
      <stop stop-color="#F2F8F5" />
      <stop offset="1" stop-color="#E1F1E9" />
    </linearGradient>
    <linearGradient id="accent" x1="0" y1="0" x2="1" y2="1">
      <stop stop-color="#1EA574" />
      <stop offset="1" stop-color="#168460" />
    </linearGradient>
  </defs>
  <rect width="1200" height="630" fill="url(#bg)" />
  <circle cx="200" cy="120" r="180" fill="#CDE9DB" opacity="0.6" />
  <circle cx="1050" cy="90" r="200" fill="#BFE2D1" opacity="0.5" />
  <circle cx="900" cy="520" r="240" fill="#D7EFE4" opacity="0.7" />
  <path d="M60 460 C240 360 420 520 600 420 C780 320 960 420 1140 320" stroke="#7BC9A6" stroke-width="2" stroke-dasharray="10 12" opacity="0.6" />
  <path d="M80 510 C260 410 440 570 620 470 C800 370 980 470 1160 370" stroke="#4FAE82" stroke-width="2" stroke-dasharray="10 12" opacity="0.6" />
  <rect x="120" y="180" width="960" height="270" rx="40" fill="white" fill-opacity="0.8" stroke="#CFE5D8" />
  <text x="180" y="270" fill="#0F3F2E" font-family="Inter, sans-serif" font-size="56" font-weight="600">KadryHR</text>
  <text x="180" y="330" fill="#2C6D52" font-family="Inter, sans-serif" font-size="30">Grafiki zmianowe, RCP i kadry dla retail</text>
  <rect x="180" y="370" width="210" height="52" rx="26" fill="url(#accent)" />
  <text x="210" y="404" fill="white" font-family="Inter, sans-serif" font-size="20" font-weight="600">Umów demo</text>
</svg>
